# MagicaVoxel @ Ephtracy

# group
o 

# material
mtllib CornerWall.mtl
usemtl palette

# normals
vn -1 0 0
vn 1 0 0
vn 0 0 1
vn 0 0 -1
vn 0 -1 0
vn 0 1 0

# texcoords
vt 0.919922 0.5
vt 0.955078 0.5

# verts
v 0 2 0
v 0 2 -1
v 0 3.2 0
v 0 3.2 -0.1
v 0 3.2 -0.9
v 0 3.2 -1
v 0 3.3 0
v 0 3.3 -0.1
v 0 3.3 -0.9
v 0 3.3 -1
v 0.9 3.2 0
v 0.9 3.2 -0.9
v 0.9 3.3 0
v 0.9 3.3 -0.9
v 0.1 3.2 0
v 0.1 3.2 -0.1
v 0.1 3.3 0
v 0.1 3.3 -0.1
v 1 2 0
v 1 2 -1
v 1 3.2 0
v 1 3.2 -1
v 1 3.3 0
v 1 3.3 -1
v 0 2 0
v 0 3.2 0
v 0 3.3 0
v 0.1 3.2 0
v 0.1 3.3 0
v 0.9 3.2 0
v 0.9 3.3 0
v 1 2 0
v 1 3.2 0
v 1 3.3 0
v 0 3.2 -0.9
v 0 3.3 -0.9
v 0.9 3.2 -0.9
v 0.9 3.3 -0.9
v 0 3.2 -0.1
v 0 3.3 -0.1
v 0.1 3.2 -0.1
v 0.1 3.3 -0.1
v 0 2 -1
v 0 3.2 -1
v 0 3.3 -1
v 1 2 -1
v 1 3.2 -1
v 1 3.3 -1
v 0 2 0
v 1 2 0
v 0 2 -1
v 1 2 -1
v 0.1 3.2 0
v 0.9 3.2 0
v 0 3.2 -0.1
v 0.1 3.2 -0.1
v 0 3.2 -0.9
v 0.9 3.2 -0.9
v 0 3.3 0
v 0.1 3.3 0
v 0.9 3.3 0
v 1 3.3 0
v 0 3.3 -0.1
v 0.1 3.3 -0.1
v 0 3.3 -0.9
v 0.9 3.3 -0.9
v 0 3.3 -1
v 1 3.3 -1

# faces
f 3/2/1 2/2/1 1/2/1
f 4/2/1 2/2/1 3/2/1
f 5/2/1 2/2/1 4/2/1
f 6/2/1 2/2/1 5/2/1
f 7/1/1 4/1/1 3/1/1
f 8/1/1 4/1/1 7/1/1
f 9/1/1 6/1/1 5/1/1
f 10/1/1 6/1/1 9/1/1
f 13/1/1 12/1/1 11/1/1
f 14/1/1 12/1/1 13/1/1
f 15/1/2 16/1/2 17/1/2
f 17/1/2 16/1/2 18/1/2
f 19/2/2 20/2/2 21/2/2
f 21/2/2 20/2/2 22/2/2
f 21/1/2 22/1/2 23/1/2
f 23/1/2 22/1/2 24/1/2
f 28/2/3 26/2/3 25/2/3
f 28/1/3 27/1/3 26/1/3
f 29/1/3 27/1/3 28/1/3
f 30/2/3 28/2/3 25/2/3
f 32/2/3 30/2/3 25/2/3
f 33/1/3 31/1/3 30/1/3
f 33/2/3 30/2/3 32/2/3
f 34/1/3 31/1/3 33/1/3
f 37/1/3 36/1/3 35/1/3
f 38/1/3 36/1/3 37/1/3
f 39/1/4 40/1/4 41/1/4
f 41/1/4 40/1/4 42/1/4
f 43/2/4 44/2/4 46/2/4
f 44/1/4 45/1/4 47/1/4
f 46/2/4 44/2/4 47/2/4
f 47/1/4 45/1/4 48/1/4
f 51/2/5 50/2/5 49/2/5
f 52/2/5 50/2/5 51/2/5
f 53/2/6 54/2/6 56/2/6
f 55/2/6 56/2/6 57/2/6
f 56/2/6 54/2/6 58/2/6
f 57/2/6 56/2/6 58/2/6
f 59/1/6 60/1/6 63/1/6
f 63/1/6 60/1/6 64/1/6
f 61/1/6 62/1/6 66/1/6
f 65/1/6 66/1/6 67/1/6
f 66/1/6 62/1/6 68/1/6
f 67/1/6 66/1/6 68/1/6
