# MagicaVoxel @ Ephtracy

# group
o 

# material
mtllib TWall.mtl
usemtl palette

# normals
vn -1 0 0
vn 1 0 0
vn 0 0 1
vn 0 0 -1
vn 0 -1 0
vn 0 1 0

# texcoords
vt 0.919922 0.5
vt 0.955078 0.5

# verts
v 0 2 0
v 0 2 -1
v 0 3.2 0
v 0 3.2 -1
v 0 3.3 0
v 0 3.3 -1
v 0.9 3.2 0
v 0.9 3.2 -0.1
v 0.9 3.2 -0.9
v 0.9 3.2 -1
v 0.9 3.3 0
v 0.9 3.3 -0.1
v 0.9 3.3 -0.9
v 0.9 3.3 -1
v 0.1 3.2 0
v 0.1 3.2 -1
v 0.1 3.3 0
v 0.1 3.3 -1
v 1 2 0
v 1 2 -1
v 1 3.2 0
v 1 3.2 -0.1
v 1 3.2 -0.9
v 1 3.2 -1
v 1 3.3 0
v 1 3.3 -0.1
v 1 3.3 -0.9
v 1 3.3 -1
v 0 2 0
v 0 3.2 0
v 0 3.3 0
v 0.1 3.2 0
v 0.1 3.3 0
v 0.9 3.2 0
v 0.9 3.3 0
v 1 2 0
v 1 3.2 0
v 1 3.3 0
v 0.9 3.2 -0.9
v 0.9 3.3 -0.9
v 1 3.2 -0.9
v 1 3.3 -0.9
v 0.9 3.2 -0.1
v 0.9 3.3 -0.1
v 1 3.2 -0.1
v 1 3.3 -0.1
v 0 2 -1
v 0 3.2 -1
v 0 3.3 -1
v 0.1 3.2 -1
v 0.1 3.3 -1
v 0.9 3.2 -1
v 0.9 3.3 -1
v 1 2 -1
v 1 3.2 -1
v 1 3.3 -1
v 0 2 0
v 1 2 0
v 0 2 -1
v 1 2 -1
v 0.1 3.2 0
v 0.9 3.2 0
v 0.9 3.2 -0.1
v 1 3.2 -0.1
v 0.9 3.2 -0.9
v 1 3.2 -0.9
v 0.1 3.2 -1
v 0.9 3.2 -1
v 0 3.3 0
v 0.1 3.3 0
v 0.9 3.3 0
v 1 3.3 0
v 0.9 3.3 -0.1
v 1 3.3 -0.1
v 0.9 3.3 -0.9
v 1 3.3 -0.9
v 0 3.3 -1
v 0.1 3.3 -1
v 0.9 3.3 -1
v 1 3.3 -1

# faces
f 3/2/1 2/2/1 1/2/1
f 4/2/1 2/2/1 3/2/1
f 5/1/1 4/1/1 3/1/1
f 6/1/1 4/1/1 5/1/1
f 11/1/1 8/1/1 7/1/1
f 12/1/1 8/1/1 11/1/1
f 13/1/1 10/1/1 9/1/1
f 14/1/1 10/1/1 13/1/1
f 15/1/2 16/1/2 17/1/2
f 17/1/2 16/1/2 18/1/2
f 19/2/2 20/2/2 21/2/2
f 21/2/2 20/2/2 22/2/2
f 22/2/2 20/2/2 23/2/2
f 23/2/2 20/2/2 24/2/2
f 21/1/2 22/1/2 25/1/2
f 25/1/2 22/1/2 26/1/2
f 23/1/2 24/1/2 27/1/2
f 27/1/2 24/1/2 28/1/2
f 32/2/3 30/2/3 29/2/3
f 32/1/3 31/1/3 30/1/3
f 33/1/3 31/1/3 32/1/3
f 34/2/3 32/2/3 29/2/3
f 36/2/3 34/2/3 29/2/3
f 37/1/3 35/1/3 34/1/3
f 37/2/3 34/2/3 36/2/3
f 38/1/3 35/1/3 37/1/3
f 41/1/3 40/1/3 39/1/3
f 42/1/3 40/1/3 41/1/3
f 43/1/4 44/1/4 45/1/4
f 45/1/4 44/1/4 46/1/4
f 47/2/4 48/2/4 50/2/4
f 48/1/4 49/1/4 50/1/4
f 50/1/4 49/1/4 51/1/4
f 47/2/4 50/2/4 52/2/4
f 47/2/4 52/2/4 54/2/4
f 52/1/4 53/1/4 55/1/4
f 54/2/4 52/2/4 55/2/4
f 55/1/4 53/1/4 56/1/4
f 59/2/5 58/2/5 57/2/5
f 60/2/5 58/2/5 59/2/5
f 61/2/6 62/2/6 63/2/6
f 61/2/6 63/2/6 65/2/6
f 63/2/6 64/2/6 65/2/6
f 65/2/6 64/2/6 66/2/6
f 61/2/6 65/2/6 67/2/6
f 67/2/6 65/2/6 68/2/6
f 71/1/6 72/1/6 73/1/6
f 73/1/6 72/1/6 74/1/6
f 69/1/6 70/1/6 77/1/6
f 77/1/6 70/1/6 78/1/6
f 75/1/6 76/1/6 79/1/6
f 79/1/6 76/1/6 80/1/6
